<svg height="546pt" viewBox="0 -2 546.65203 546" width="546pt" xmlns="http://www.w3.org/2000/svg"><path d="m6.242188 446.0625 71.261718-71.261719 97.984375 80.167969-80.171875 80.167969-17.8125-71.257813zm0 0" fill="#d80027"/><path d="m540.695312 446.0625-71.261718-71.261719-97.980469 80.167969 80.164063 80.167969 17.816406-71.257813zm0 0" fill="#d80027"/><path d="m482.019531 370.507812c6.71875-11.578124-4.257812-31.636718.394531-44.386718 4.578126-12.523438 25.917969-20.78125 28.28125-34.203125 2.296876-13.070313-14.894531-28.113281-14.894531-41.820313 0-13.710937 17.191407-28.753906 14.894531-41.820312-2.363281-13.425782-23.710937-21.683594-28.28125-34.207032-4.648437-12.746093 6.324219-32.789062-.394531-44.378906-6.714843-11.589844-29.652343-12.140625-38.300781-22.429687-8.648438-10.289063-5.175781-32.957031-15.488281-41.597657-10.316407-8.640624-31.945313-1.308593-43.648438-8.085937-11.707031-6.777344-16.035156-29.179687-28.746093-33.847656-12.523438-4.570313-30.339844 9.738281-43.761719 7.375-13.058594-2.28125-24.898438-21.867188-38.605469-21.867188s-25.546875 19.597657-38.613281 21.886719c-13.425781 2.359375-31.238281-11.945312-43.765625-7.375-12.746094 4.648438-17.144532 27.113281-28.734375 33.847656-11.589844 6.730469-33.347657-.5625-43.644531 8.085938-10.300782 8.652344-6.816407 31.273437-15.492188 41.589844-8.675781 10.316406-31.523438 10.734374-38.300781 22.429687-6.78125 11.695313 4.257812 31.640625-.394531 44.386719-4.578126 12.523437-25.921876 20.78125-28.28125 34.207031-2.296876 13.046875 14.894531 28.09375 14.894531 41.800781 0 13.710938-17.191407 28.757813-14.894531 41.867188 2.363281 13.421875 23.710937 21.679687 28.28125 34.203125 4.648437 12.75-6.324219 32.789062.394531 44.378906 2.414062 3.570313 5.820312 6.355469 9.796875 8.015625l3.769531-3.757812-3.757813 3.757812c9.582032 4.757812 22.460938 7.199219 28.503907 14.371094 8.667969 10.324218 5.175781 32.957031 15.488281 41.597656 10.316406 8.640625 31.941406 1.308594 43.648438 8.085938 11.703124 6.777343 16.03125 29.183593 28.742187 33.847656 12.523437 4.570312 30.339844-9.734375 43.765625-7.375 13.066406 2.300781 24.9375 21.886718 38.613281 21.886718s25.546875-19.597656 38.613281-21.886718c13.425782-2.359375 31.238282 11.945312 43.765626 7.375 12.746093-4.648438 17.144531-27.113282 28.734374-33.847656 11.589844-6.734376 33.347657.5625 43.644532-8.085938 10.296875-8.652344 6.816406-31.273438 15.492187-41.589844 6.027344-7.179687 18.910157-9.621094 28.503907-14.378906l-3.785157-3.757812 3.757813 3.757812c3.984375-1.667969 7.394531-4.46875 9.804687-8.054688zm-208.550781 57.738282c-98.390625 0-178.152344-79.757813-178.152344-178.148438s79.761719-178.152344 178.152344-178.152344 178.152344 79.761719 178.152344 178.152344c-.117188 98.34375-79.808594 178.035156-178.152344 178.148438zm0 0" fill="#006df0"/><path d="m273.46875 71.945312c-98.390625 0-178.152344 79.761719-178.152344 178.152344s79.761719 178.148438 178.152344 178.148438 178.152344-79.757813 178.152344-178.148438c-.117188-98.34375-79.808594-178.039062-178.152344-178.152344zm0 311.765626c-73.792969 0-133.613281-59.820313-133.613281-133.613282 0-73.792968 59.820312-133.613281 133.613281-133.613281s133.613281 59.820313 133.613281 133.613281c-.082031 73.757813-59.855469 133.527344-133.613281 133.613282zm0 0" fill="#ffeb99"/><path d="m273.46875 116.484375c-73.792969 0-133.613281 59.820313-133.613281 133.609375 0 73.792969 59.820312 133.613281 133.613281 133.613281s133.613281-59.820312 133.613281-133.613281c-.082031-73.753906-59.855469-133.527344-133.613281-133.609375zm0 204.875v-133.617187l-35.628906 35.632812 35.628906-35.632812zm0 0" fill="#d80027"/><path d="m282.375 187.742188c0-4.917969-3.988281-8.90625-8.90625-8.902344-2.363281 0-4.628906.9375-6.296875 2.605468l-35.632813 35.632813 12.597657 12.59375 20.421875-20.425781v94.296875h-17.8125v17.816406h53.445312v-17.816406h-17.816406zm0 0"/><path d="m460.527344 250.097656c0-103.308594-83.75-187.058594-187.058594-187.058594s-187.058594 83.75-187.058594 187.058594 83.75 187.058594 187.058594 187.058594c103.261719-.117188 186.941406-83.800781 187.058594-187.058594zm-187.058594 169.242188c-93.46875 0-169.242188-75.773438-169.242188-169.242188 0-93.472656 75.773438-169.242187 169.242188-169.242187 93.472656 0 169.242188 75.769531 169.242188 169.242187-.101563 93.425782-75.816407 169.140625-169.242188 169.242188zm0 0"/><path d="m273.46875 107.574219c-78.710938 0-142.519531 63.808593-142.519531 142.519531s63.808593 142.519531 142.519531 142.519531 142.519531-63.808593 142.519531-142.519531c-.09375-78.671875-63.847656-142.425781-142.519531-142.519531zm0 267.226562c-68.871094 0-124.707031-55.832031-124.707031-124.707031 0-68.871094 55.835937-124.703125 124.707031-124.703125 68.875 0 124.707031 55.832031 124.707031 124.703125-.074219 68.84375-55.863281 124.632812-124.707031 124.707031zm0 0"/><path d="m544.320312 437.972656-58.398437-58.324218c1.460937-1.390626 2.738281-2.957032 3.804687-4.667969 3.953126-9.222657 4.582032-19.53125 1.78125-29.164063-1.421874-5.429687-1.679687-11.101562-.757812-16.640625 2.828125-4.699219 6.601562-8.761719 11.082031-11.925781 8.460938-5.636719 14.6875-14.054688 17.609375-23.792969.53125-9.9375-2.398437-19.753906-8.285156-27.78125-3.230469-4.675781-5.429688-9.988281-6.449219-15.578125 1.027344-5.59375 3.238281-10.90625 6.476563-15.582031 5.886718-8.023437 8.816406-17.839844 8.285156-27.78125-2.917969-9.738281-9.148438-18.15625-17.609375-23.792969-4.46875-3.167968-8.230469-7.230468-11.046875-11.925781-.921875-5.535156-.664062-11.203125.757812-16.632813 2.800782-9.636718 2.171876-19.945312-1.78125-29.171874-6.058593-8.066407-14.734374-13.78125-24.539062-16.164063-5.355469-1.453125-10.34375-4.011719-14.644531-7.519531-2.722657-4.855469-4.394531-10.230469-4.90625-15.773438-.660157-10.050781-4.789063-19.5625-11.679688-26.910156-8.410156-5.507812-18.464843-7.925781-28.460937-6.84375-5.570313.449219-11.171875-.277344-16.441406-2.136719-4.171876-3.613281-7.539063-8.0625-9.886719-13.058593-4.0625-9.28125-11.226563-16.859376-20.265625-21.429688-9.738282-2.28125-19.96875-1.109375-28.941406 3.3125-5.125 2.363281-10.691407 3.613281-16.335938 3.660156-5.085938-1.949218-9.710938-4.941406-13.574219-8.78125-7.066406-7.382812-16.488281-12.066406-26.640625-13.238281-10.132812 1.183594-19.53125 5.867187-26.582031 13.238281-3.863281 3.839844-8.488281 6.832032-13.574219 8.78125-5.644531-.039062-11.214844-1.289062-16.335937-3.660156-8.976563-4.425781-19.207031-5.59375-28.949219-3.3125-9.035156 4.578125-16.195312 12.152344-20.253906 21.429688-2.351563 4.996093-5.71875 9.445312-9.890625 13.058593-5.269531 1.859375-10.871094 2.589844-16.441407 2.136719-9.992187-1.082031-20.050781 1.335938-28.460937 6.84375-6.890625 7.34375-11.019531 16.855469-11.675781 26.910156-.507813 5.539063-2.179688 10.910156-4.902344 15.765625-4.300781 3.503907-9.289062 6.066407-14.640625 7.519531-9.8125 2.382813-18.492187 8.097657-24.550781 16.175782-3.953125 9.21875-4.582032 19.527344-1.78125 29.164062 1.402344 5.433594 1.636718 11.101563.695312 16.636719-2.816406 4.699219-6.578125 8.761719-11.046875 11.929687-8.460937 5.636719-14.6875 14.050782-17.609375 23.792969-.527344 9.9375 2.394532 19.75 8.277344 27.78125 3.242188 4.671875 5.453125 9.984375 6.480469 15.578125-1.027344 5.59375-3.238281 10.90625-6.480469 15.578125-5.882812 8.03125-8.804688 17.847657-8.277344 27.785157 2.917969 9.738281 9.148438 18.15625 17.609375 23.792968 4.46875 3.167969 8.230469 7.226563 11.046875 11.925782.921875 5.535156.664063 11.203124-.757812 16.628906-2.800782 9.640625-2.171875 19.949218 1.78125 29.171875 1.066406 1.714843 2.34375 3.285156 3.804687 4.675781l-58.339843 58.316406c-3.484376 3.476563-3.492188 9.117188-.015626 12.597656 1.097657 1.105469 2.46875 1.898438 3.96875 2.308594l64.394532 17.535156 17.539062 64.394532c.84375 3.050781 3.242188 5.425781 6.304688 6.234375.75.195312 1.519531.296875 2.289062.296875 2.363282 0 4.628906-.9375 6.300782-2.609375l68.585937-68.542969c3.621094 6.496094 9.277344 11.625 16.097656 14.597656 9.738281 2.273438 19.96875 1.105469 28.941407-3.3125 5.117187-2.382812 10.691406-3.632812 16.335937-3.660156 5.085937 1.949219 9.710937 4.9375 13.574219 8.78125 7.03125 7.375 16.414062 12.066406 26.535156 13.273438 10.128906-1.1875 19.527344-5.871094 26.578125-13.238282 3.867187-3.84375 8.488281-6.835937 13.578125-8.785156 5.644531.035156 11.214844 1.285156 16.335938 3.664062 8.976562 4.417969 19.207031 5.589844 28.949218 3.3125 6.820313-2.972656 12.476563-8.101562 16.101563-14.597656l68.589843 68.542969c1.667969 1.667969 3.933594 2.609375 6.296876 2.609375.773437 0 1.542968-.101562 2.289062-.296875 3.0625-.808594 5.464844-3.183594 6.308594-6.234375l17.539062-64.394531 64.390625-17.535157c4.75-1.292968 7.550781-6.1875 6.261719-10.933593-.410156-1.5-1.203125-2.871094-2.304688-3.96875zm-442.660156 77.335938-14.847656-54.484375c-.832031-3.035157-3.203125-5.402344-6.238281-6.238281l-54.496094-14.867188 50.601563-50.53125c1.703124.667969 3.414062 1.34375 5.070312 1.960938 5.355469 1.449218 10.34375 4.011718 14.644531 7.519531 2.722657 4.855469 4.394531 10.230469 4.90625 15.773437.660157 10.050782 4.789063 19.5625 11.675781 26.910156 8.421876 5.515626 18.5 7.933594 28.507813 6.839844 5.570313-.449218 11.171875.28125 16.441406 2.136719 1.71875 1.175781 3.199219 2.671875 4.355469 4.402344zm262.140625-60.917969c-3.5625 6.046875-7.214843 12.300781-11.003906 13.691406-5.839844.386719-11.675781-.773437-16.921875-3.367187-7.933594-3.636719-16.671875-5.167969-25.371094-4.453125-8.242187 2.25-15.765625 6.589843-21.839844 12.597656-5.453124 4.507813-11.089843 9.15625-15.230468 9.15625-4.144532 0-9.800782-4.648437-15.234375-9.15625-6.070313-5.984375-13.578125-10.304687-21.804688-12.542969-1.574219-.273437-3.167969-.40625-4.765625-.398437-7.089844.433593-14.054687 2.066406-20.601562 4.816406-5.234375 2.585937-11.058594 3.746094-16.882813 3.367187-3.792969-1.390624-7.464843-7.640624-11.007812-13.691406-3.667969-7.792968-9.292969-14.503906-16.320313-19.480468-7.871094-3.65625-16.554687-5.21875-25.207031-4.535157-5.855469.640625-11.78125-.28125-17.164063-2.671875-3.300781-4.902344-5.242187-10.597656-5.621093-16.496094-.816407-8.625-3.84375-16.894531-8.792969-24.003906-6.136719-6.089844-13.746094-10.484375-22.082031-12.757812-6.238281-2.324219-13.359375-4.953125-15.332031-8.398438-1.402344-5.703125-1.277344-11.675781.359374-17.316406 2.179688-8.417969 2.148438-17.261719-.089843-25.664062-3.664063-7.746094-9.265625-14.417969-16.257813-19.375-5.34375-4.570313-10.910156-9.289063-11.578125-13.359376.664063-5.761718 2.8125-11.246093 6.234375-15.925781 4.96875-7.21875 7.984375-15.597656 8.757813-24.328125-.78125-8.738281-3.808594-17.128906-8.792969-24.351562-3.425781-4.679688-5.574219-10.167969-6.234375-15.925782.703125-4.027343 6.234375-8.75 11.578125-13.359374 6.992188-4.957032 12.589844-11.628907 16.253906-19.375 2.242188-8.40625 2.273438-17.242188.089844-25.664063-1.632812-5.640625-1.753906-11.613281-.347656-17.316406 2.003906-3.457031 9.085937-6.082031 15.335937-8.410157 8.335938-2.277343 15.9375-6.671874 22.074219-12.753906 4.945312-7.105468 7.972656-15.375 8.78125-23.996094.386719-5.898437 2.328125-11.589843 5.621094-16.496093 5.390625-2.394531 11.3125-3.316407 17.171875-2.671875 8.652343.683594 17.332031-.878906 25.203125-4.535156 7.027344-4.976563 12.648437-11.6875 16.316406-19.480469 3.5625-6.046875 7.214844-12.300781 11-13.691407 5.839844-.398437 11.683594.765626 16.925781 3.363282 7.929688 3.648437 16.671875 5.183594 25.371094 4.453125 8.238281-2.246094 15.761719-6.582031 21.839844-12.585938 5.433593-4.503906 11.089843-9.15625 15.230469-9.15625 4.140624 0 9.800781 4.648438 15.234374 9.15625 6.074219 6.003907 13.597657 10.332031 21.839844 12.578125 8.699219.71875 17.433594-.816406 25.367188-4.453125 5.246094-2.597656 11.085937-3.761719 16.925781-3.363281 3.796875 1.386719 7.464844 7.640625 11.011719 13.691406 3.667968 7.789063 9.289062 14.5 16.316406 19.480469 7.871094 3.65625 16.554688 5.21875 25.207031 4.535156 5.859375-.640625 11.78125.28125 17.167969 2.671875 3.296875 4.902344 5.238281 10.597656 5.621094 16.496094.804687 8.640625 3.832031 16.925781 8.789062 24.046875 6.136719 6.089844 13.746094 10.484375 22.082032 12.757813 6.238281 2.324218 13.363281 4.953124 15.332031 8.398437 1.402343 5.703125 1.277343 11.675781-.355469 17.316406-2.179688 8.417969-2.152344 17.257813.085938 25.664063 3.667968 7.746094 9.265624 14.417968 16.257812 19.371094 5.34375 4.570312 10.910156 9.292968 11.578125 13.363281-.660156 5.761719-2.8125 11.246093-6.234375 15.925781-4.980469 7.210938-8.011719 15.589844-8.800781 24.316406.78125 8.738282 3.808593 17.128906 8.792969 24.355469 3.421874 4.675781 5.574218 10.164063 6.234374 15.925781-.703124 4.023438-6.234374 8.746094-11.578124 13.359375-6.996094 4.953125-12.589844 11.625-16.257813 19.375-2.238281 8.402344-2.269531 17.242188-.085937 25.660157 1.632812 5.644531 1.75 11.613281.347656 17.316406-2.003906 3.457031-9.085938 6.085937-15.339844 8.410156-8.332031 2.277344-15.9375 6.671875-22.070312 12.753906-4.949219 7.109375-7.972657 15.375-8.78125 24-.390626 5.898438-2.328126 11.589844-5.621094 16.496094-5.390625 2.390625-11.316406 3.3125-17.175782 2.671875-8.648437-.683594-17.328124.878906-25.199218 4.535156-7.03125 4.960938-12.667969 11.65625-16.351563 19.433594zm102.578125.179687c-3.03125.832032-5.402344 3.199219-6.234375 6.234376l-14.851562 54.488281-60.570313-60.570313c1.15625-1.730468 2.636719-3.226562 4.355469-4.402344 5.269531-1.859374 10.871094-2.589843 16.441406-2.136718 10.007813 1.089844 20.085938-1.324219 28.503907-6.839844 6.894531-7.347656 11.023437-16.859375 11.679687-26.910156.507813-5.542969 2.175781-10.914063 4.898437-15.769532 4.300782-3.503906 9.292969-6.0625 14.644532-7.515624 1.664062-.617188 3.375-1.292969 5.078125-1.96875l50.601562 50.53125zm0 0"/></svg>