<svg height="546pt" viewBox="0 -2 546.65203 546" width="546pt" xmlns="http://www.w3.org/2000/svg"><path d="m6.242188 446.0625 71.261718-71.261719 97.980469 80.167969-80.167969 80.167969-17.8125-71.261719zm0 0" fill="#d80027"/><path d="m540.691406 446.0625-71.257812-71.261719-97.984375 80.167969 80.167969 80.167969 17.816406-71.261719zm0 0" fill="#d80027"/><path d="m482.019531 370.507812c6.714844-11.578124-4.257812-31.640624.390625-44.386718 4.578125-12.523438 25.921875-20.78125 28.28125-34.207032 2.300782-13.066406-14.890625-28.109374-14.890625-41.820312 0-13.707031 17.191407-28.753906 14.890625-41.820312-2.359375-13.421876-23.710937-21.679688-28.28125-34.203126-4.648437-12.75 6.324219-32.789062-.390625-44.378906-6.714843-11.589844-29.652343-12.140625-38.300781-22.429687-8.652344-10.289063-5.179688-32.957031-15.492188-41.597657-10.3125-8.640624-31.941406-1.308593-43.648437-8.085937-11.703125-6.777344-16.03125-29.179687-28.742187-33.847656-12.523438-4.570313-30.339844 9.738281-43.761719 7.375-13.058594-2.28125-24.898438-21.867188-38.605469-21.867188-13.710938 0-25.546875 19.597657-38.617188 21.886719-13.421874 2.359375-31.238281-11.945312-43.761718-7.375-12.746094 4.648438-17.144532 27.113281-28.734375 33.847656-11.589844 6.730469-33.347657-.5625-43.648438 8.085938-10.296875 8.648437-6.8125 31.273437-15.488281 41.589844-8.675781 10.316406-31.523438 10.734374-38.300781 22.429687-6.78125 11.695313 4.257812 31.640625-.394531 44.386719-4.578126 12.523437-25.921876 20.78125-28.28125 34.203125-2.296876 13.050781 14.894531 28.097656 14.894531 41.804687 0 13.710938-17.191407 28.753906-14.894531 41.867188 2.363281 13.421875 23.710937 21.679687 28.28125 34.203125 4.648437 12.746093-6.324219 32.789062.394531 44.378906 2.414062 3.566406 5.820312 6.355469 9.796875 8.015625l3.769531-3.757812-3.757813 3.757812c9.582032 4.757812 22.460938 7.199219 28.503907 14.367188 8.664062 10.324218 5.175781 32.957031 15.488281 41.597656 10.316406 8.640625 31.941406 1.3125 43.648438 8.089844 11.703124 6.777343 16.03125 29.179687 28.742187 33.847656 12.523437 4.570312 30.339844-9.738282 43.761719-7.375 13.070312 2.296875 24.941406 21.886718 38.617187 21.886718 13.671875 0 25.542969-19.597656 38.613281-21.886718 13.421876-2.359375 31.238282 11.945312 43.761719 7.375 12.746094-4.648438 17.148438-27.113282 28.734375-33.847656 11.589844-6.734376 33.351563.5625 43.648438-8.089844 10.296875-8.648438 6.8125-31.273438 15.488281-41.589844 6.03125-7.175781 18.910156-9.617188 28.503906-14.375l-3.785156-3.757812 3.761719 3.757812c3.984375-1.667969 7.390625-4.46875 9.804687-8.054688zm-208.550781 57.738282c-98.390625 0-178.152344-79.757813-178.152344-178.148438s79.761719-178.148437 178.152344-178.148437c98.386719 0 178.148438 79.757812 178.148438 178.148437-.113282 98.34375-79.804688 178.035156-178.148438 178.148438zm0 0" fill="#006df0"/><path d="m273.46875 71.945312c-98.390625 0-178.152344 79.761719-178.152344 178.152344 0 98.386719 79.761719 178.148438 178.152344 178.148438 98.386719 0 178.148438-79.761719 178.148438-178.148438-.113282-98.34375-79.804688-178.039062-178.148438-178.152344zm0 311.765626c-73.792969 0-133.613281-59.820313-133.613281-133.613282 0-73.792968 59.820312-133.613281 133.613281-133.613281 73.789062 0 133.609375 59.820313 133.609375 133.613281-.082031 73.757813-59.851563 133.527344-133.609375 133.613282zm0 0" fill="#ffeb99"/><path d="m273.46875 116.484375c-73.792969 0-133.613281 59.820313-133.613281 133.609375 0 73.792969 59.820312 133.613281 133.613281 133.613281 73.789062 0 133.609375-59.820312 133.609375-133.613281-.082031-73.753906-59.851563-133.527344-133.609375-133.609375zm26.722656 133.613281v44.535156c0 9.839844-7.980468 17.816407-17.816406 17.816407 9.835938 0 17.816406-7.976563 17.816406-17.816407v-89.074218c0-9.835938-7.980468-17.8125-17.816406-17.8125 9.835938 0 17.816406 7.972656 17.816406 17.8125zm0 0" fill="#d80027"/><path d="m282.375 178.835938h-44.539062v17.816406h44.539062c4.917969 0 8.90625 3.988281 8.90625 8.90625v35.632812h-53.445312v17.816406h53.445312v35.628907c0 4.917969-3.988281 8.90625-8.90625 8.90625h-44.539062v17.816406h44.539062c14.757812 0 26.722656-11.964844 26.722656-26.722656v-89.074219c0-14.761719-11.964844-26.726562-26.722656-26.726562zm0 0"/><path d="m460.523438 250.097656c0-103.308594-83.746094-187.058594-187.054688-187.058594s-187.058594 83.75-187.058594 187.058594 83.75 187.058594 187.058594 187.058594c103.257812-.121094 186.9375-83.800781 187.054688-187.058594zm-187.054688 169.242188c-93.472656 0-169.242188-75.773438-169.242188-169.242188s75.769532-169.242187 169.242188-169.242187c93.46875 0 169.242188 75.769531 169.242188 169.242187-.105469 93.425782-75.816407 169.136719-169.242188 169.242188zm0 0"/><path d="m273.46875 107.574219c-78.710938 0-142.519531 63.808593-142.519531 142.519531s63.808593 142.519531 142.519531 142.519531 142.519531-63.808593 142.519531-142.519531c-.09375-78.671875-63.847656-142.421875-142.519531-142.519531zm0 267.226562c-68.875 0-124.707031-55.832031-124.707031-124.707031 0-68.871094 55.832031-124.703125 124.707031-124.703125 68.871094 0 124.707031 55.832031 124.707031 124.703125-.078125 68.84375-55.867187 124.632812-124.707031 124.707031zm0 0"/><path d="m544.316406 437.972656-58.394531-58.324218c1.460937-1.390626 2.742187-2.960938 3.800781-4.679688 3.953125-9.214844 4.582032-19.519531 1.78125-29.152344-1.417968-5.433594-1.679687-11.101562-.757812-16.640625 2.828125-4.699219 6.601562-8.761719 11.082031-11.925781 8.460937-5.636719 14.691406-14.054688 17.609375-23.792969.527344-9.941406-2.398438-19.753906-8.28125-27.78125-3.230469-4.679687-5.429688-9.988281-6.449219-15.582031 1.027344-5.59375 3.234375-10.902344 6.476563-15.578125 5.882812-8.027344 8.808594-17.84375 8.28125-27.78125-2.917969-9.738281-9.148438-18.15625-17.609375-23.792969-4.46875-3.167968-8.230469-7.230468-11.042969-11.925781-.925781-5.535156-.667969-11.203125.753906-16.632813 2.800782-9.636718 2.171875-19.945312-1.78125-29.171874-6.0625-8.066407-14.734375-13.78125-24.539062-16.167969-5.355469-1.449219-10.34375-4.007813-14.640625-7.515625-2.726563-4.855469-4.398438-10.230469-4.910157-15.773438-.660156-10.050781-4.785156-19.5625-11.667968-26.910156-8.421875-5.515625-18.496094-7.933594-28.503906-6.84375-5.570313.449219-11.175782-.277344-16.441407-2.136719-4.171875-3.617187-7.539062-8.066406-9.890625-13.058593-4.0625-9.277344-11.226562-16.855469-20.261718-21.429688-9.738282-2.285156-19.96875-1.117188-28.941407 3.3125-5.121093 2.375-10.691406 3.625-16.335937 3.660156-5.089844-1.949218-9.714844-4.941406-13.582032-8.78125-7.054687-7.378906-16.460937-12.058594-26.597656-13.238281-10.128906 1.183594-19.527344 5.867187-26.574218 13.238281-3.867188 3.839844-8.492188 6.832032-13.582032 8.78125-5.644531-.035156-11.21875-1.28125-16.335937-3.660156-8.972657-4.425781-19.203125-5.597656-28.941407-3.3125-9.035156 4.570312-16.199218 12.148438-20.253906 21.429688-2.355468 4.996093-5.730468 9.445312-9.90625 13.058593-5.269531 1.859375-10.867187 2.589844-16.433594 2.136719-10.007812-1.089844-20.082031 1.328125-28.503906 6.84375-6.890625 7.347656-11.011718 16.855469-11.667968 26.910156-.511719 5.539063-2.183594 10.910156-4.902344 15.765625-4.300782 3.5-9.289063 6.0625-14.640625 7.515625-9.816407 2.386719-18.492188 8.109375-24.550781 16.1875-3.953126 9.214844-4.582032 19.519532-1.78125 29.152344 1.414062 5.433594 1.664062 11.105469.730468 16.640625-2.816406 4.699219-6.578125 8.757813-11.046875 11.925781-8.460937 5.640625-14.6875 14.054688-17.609375 23.792969-.523437 9.9375 2.398438 19.753906 8.277344 27.78125 3.242188 4.671875 5.457031 9.984375 6.484375 15.582031-1.03125 5.59375-3.242187 10.90625-6.484375 15.578125-5.878906 8.03125-8.800781 17.84375-8.277344 27.78125 2.921875 9.738281 9.148438 18.15625 17.609375 23.792969 4.46875 3.167969 8.230469 7.230469 11.046875 11.925781.921875 5.535157.664063 11.203125-.757812 16.632813-2.800782 9.636718-2.171875 19.945312 1.78125 29.171875 1.0625 1.710937 2.34375 3.277343 3.804687 4.667969l-58.339843 58.324218c-3.484376 3.472656-3.492188 9.113282-.015626 12.597656 1.097657 1.101563 2.46875 1.894532 3.96875 2.304688l64.394532 17.539062 17.539062 64.390626c.84375 3.050781 3.242188 5.425781 6.304688 6.234374.746094.195313 1.519531.296876 2.289062.296876 2.363282.007812 4.632813-.933594 6.300782-2.609376l68.523437-68.507812c3.628906 6.496094 9.285156 11.625 16.105469 14.597656 9.738281 2.273438 19.96875 1.105469 28.941406-3.3125 5.121094-2.367187 10.691406-3.617187 16.335938-3.660156 5.089843 1.949219 9.714843 4.941406 13.582031 8.78125 7.046875 7.375 16.449219 12.054688 26.582031 13.234375 10.125-1.183594 19.523438-5.867187 26.570312-13.234375 3.867188-3.839844 8.492188-6.832031 13.582032-8.78125 5.644531.046875 11.214844 1.296875 16.335937 3.660156 8.976563 4.417969 19.203125 5.589844 28.941407 3.3125 6.824218-2.96875 12.488281-8.097656 16.113281-14.597656l68.589843 68.542969c1.664063 1.675781 3.933594 2.617187 6.296876 2.609375.773437 0 1.542968-.097656 2.289062-.292969 3.0625-.8125 5.460938-3.183594 6.308594-6.238281l17.535156-64.390625 64.394531-17.539063c4.746094-1.289062 7.550781-6.183594 6.257813-10.933594-.40625-1.5-1.203125-2.871093-2.304688-3.96875zm-442.65625 77.335938-14.851562-54.488282c-.828125-3.03125-3.199219-5.402343-6.234375-6.234374l-54.496094-14.867188 50.613281-50.53125c1.691406.675781 3.402344 1.34375 5.058594 1.960938 5.355469 1.449218 10.34375 4.011718 14.644531 7.515624 2.722657 4.859376 4.394531 10.230469 4.90625 15.777344.660157 10.046875 4.785157 19.558594 11.667969 26.910156 8.421875 5.511719 18.5 7.929688 28.503906 6.839844 5.570313-.449218 11.175782.277344 16.445313 2.136719 1.71875 1.175781 3.195312 2.671875 4.355469 4.402344zm262.136719-60.917969c-3.5625 6.046875-7.222656 12.300781-11.007813 13.691406-5.839843.390625-11.679687-.773437-16.925781-3.367187-7.933593-3.632813-16.671875-5.167969-25.367187-4.453125-8.242188 2.25-15.765625 6.589843-21.84375 12.597656-5.449219 4.503906-11.085938 9.15625-15.230469 9.15625-4.140625 0-9.796875-4.648437-15.230469-9.15625-6.070312-5.984375-13.578125-10.300781-21.796875-12.542969-1.570312-.273437-3.164062-.40625-4.757812-.398437-7.09375.433593-14.0625 2.066406-20.613281 4.816406-5.234376 2.574219-11.054688 3.734375-16.878907 3.367187-3.796875-1.390624-7.457031-7.652343-11.011719-13.699218-3.675781-7.789063-9.300781-14.496094-16.328124-19.472656-7.867188-3.65625-16.546876-5.21875-25.199219-4.535157-5.855469.644531-11.777344-.277343-17.164063-2.671875-3.296875-4.90625-5.238281-10.597656-5.621094-16.496094-.808593-8.625-3.839843-16.894531-8.792968-24.003906-6.132813-6.085937-13.738282-10.480468-22.070313-12.753906-6.238281-2.328125-13.363281-4.953125-15.339843-8.402344-1.402344-5.703125-1.277344-11.675781.359374-17.316406 2.179688-8.417969 2.148438-17.257812-.089843-25.664062-3.664063-7.75-9.265625-14.421876-16.265625-19.371094-5.347656-4.570313-10.894532-9.292969-11.582032-13.359375.660157-5.761719 2.808594-11.25 6.238282-15.925781 4.964844-7.222657 7.988281-15.601563 8.765625-24.328126-.78125-8.738281-3.808594-17.128906-8.792969-24.355468-3.429688-4.675782-5.578125-10.164063-6.234375-15.925782.703125-4.023437 6.234375-8.746093 11.578125-13.359374 7-4.949219 12.601562-11.621094 16.265625-19.371094 2.238281-8.40625 2.269531-17.246094.089844-25.664063-1.636719-5.640625-1.757813-11.613281-.359375-17.316406 2.015625-3.457031 9.097656-6.085937 15.347656-8.410156 8.335938-2.277344 15.9375-6.671875 22.074219-12.753907 4.945312-7.109374 7.96875-15.375 8.78125-24 .378906-5.898437 2.320312-11.589843 5.621093-16.496093 5.386719-2.390625 11.308594-3.3125 17.164063-2.671875 8.652344.6875 17.332031-.875 25.199219-4.53125 7.035156-4.976563 12.660156-11.6875 16.328125-19.480469 3.5625-6.050781 7.226562-12.300781 11.011719-13.695313 5.824218-.378906 11.644531.785157 16.878906 3.367188 7.933594 3.644531 16.671875 5.179688 25.371094 4.453125 8.25-2.242187 15.78125-6.578125 21.867187-12.585937 5.433594-4.507813 11.089844-9.15625 15.230469-9.15625 4.144531 0 9.800781 4.648437 15.234375 9.15625 6.074219 6 13.597656 10.332031 21.839843 12.578124 8.699219.714844 17.433594-.816406 25.367188-4.453124 5.242188-2.605469 11.085938-3.769532 16.925781-3.367188 3.796875 1.390625 7.457031 7.652344 11.011719 13.703125 3.671875 7.785156 9.296875 14.492187 16.324219 19.46875 7.871093 3.65625 16.550781 5.21875 25.199219 4.535156 5.859374-.644531 11.78125.277344 17.167968 2.671875 3.296875 4.90625 5.234375 10.597656 5.617188 16.496094.804687 8.640625 3.835937 16.929688 8.792968 24.050781 6.136719 6.082031 13.738282 10.476563 22.074219 12.753907 6.234375 2.324218 13.359375 4.953124 15.335938 8.398437 1.402343 5.703125 1.28125 11.675781-.355469 17.316406-2.179688 8.417969-2.148438 17.257813.089844 25.664063 3.660156 7.75 9.265625 14.425781 16.265625 19.375 5.34375 4.566406 10.894531 9.289062 11.578125 13.359375-.65625 5.761719-2.804688 11.25-6.234375 15.925781-4.984375 7.210938-8.019531 15.585938-8.8125 24.316406.78125 8.742188 3.8125 17.128906 8.792969 24.355469 3.429687 4.675781 5.578124 10.164063 6.238281 15.925781-.703125 4.023438-6.238281 8.746094-11.582031 13.359375-7 4.949219-12.601563 11.621094-16.265626 19.375-2.238281 8.402344-2.269531 17.242188-.085937 25.660157 1.632813 5.640624 1.757813 11.613281.355469 17.316406-2.015625 3.457031-9.09375 6.085937-15.347656 8.410156-8.335938 2.277344-15.9375 6.671875-22.074219 12.753906-4.945313 7.109375-7.96875 15.375-8.78125 24-.378907 5.898438-2.316407 11.59375-5.621094 16.496094-5.382813 2.390625-11.308594 3.3125-17.164063 2.671875-8.648437-.6875-17.328124.875-25.199218 4.53125-7.039063 4.960937-12.671875 11.65625-16.355469 19.4375zm102.582031.175781c-3.035156.832032-5.402344 3.203125-6.238281 6.238282l-14.847656 54.484374-60.570313-60.570312c1.164063-1.726562 2.644532-3.214844 4.363282-4.390625 5.269531-1.859375 10.867187-2.589844 16.433593-2.136719 10.007813 1.089844 20.082031-1.328125 28.503907-6.839844 6.886718-7.347656 11.011718-16.859374 11.667968-26.910156.515625-5.542968 2.183594-10.914062 4.902344-15.769531 4.300781-3.5 9.289062-6.0625 14.640625-7.515625 1.667969-.617188 3.378906-1.292969 5.078125-1.96875l50.605469 50.53125zm0 0"/></svg>